<svg width="48" height="48" viewBox="0 0 48 48" fill="none" xmlns="http://www.w3.org/2000/svg">
<circle cx="24" cy="24" r="24" fill="white" fill-opacity="0.2"/>
<path fill-rule="evenodd" clip-rule="evenodd" d="M23.8489 27.2183L23.9995 27.2184L24.3362 27.2195C26.9104 27.2365 32.7929 27.4965 32.7929 31.4837C32.7929 35.4447 27.1154 35.703 24.3764 35.7198L23.3615 35.7198C20.7873 35.7029 14.9036 35.4432 14.9036 31.461C14.9036 27.495 20.7873 27.2364 23.3615 27.2195L23.6983 27.2184C23.7506 27.2183 23.8008 27.2183 23.8489 27.2183ZM23.8489 29.2183C20.6809 29.2183 16.9036 29.6077 16.9036 31.461C16.9036 33.2724 20.4554 33.6959 23.5593 33.7199L23.8489 33.721C27.0169 33.721 30.7929 33.333 30.7929 31.4837C30.7929 29.6117 27.0169 29.2183 23.8489 29.2183ZM34.4537 26.6773C37.6844 27.1613 38.363 28.6786 38.363 29.8666C38.363 30.5919 38.0777 31.9159 36.171 32.6426C36.0537 32.6866 35.9337 32.7079 35.815 32.7079C35.4124 32.7079 35.0324 32.4626 34.8804 32.0639C34.683 31.5479 34.943 30.9693 35.459 30.7733C36.363 30.4293 36.363 30.0493 36.363 29.8666C36.363 29.2826 35.6204 28.8746 34.1564 28.6559C33.611 28.5733 33.2337 28.0653 33.315 27.5173C33.3964 26.9706 33.903 26.6066 34.4537 26.6773ZM14.3814 27.5173C14.4628 28.0653 14.0854 28.5733 13.5401 28.6559C12.0761 28.8746 11.3334 29.2826 11.3334 29.8666C11.3334 30.0493 11.3334 30.4279 12.2388 30.7733C12.7548 30.9693 13.0148 31.5479 12.8174 32.0639C12.6654 32.4626 12.2854 32.7079 11.8828 32.7079C11.7641 32.7079 11.6441 32.6866 11.5268 32.6426C9.61877 31.9146 9.33344 30.5906 9.33344 29.8666C9.33344 28.6799 10.0121 27.1613 13.2441 26.6773C13.7948 26.6079 14.2988 26.9706 14.3814 27.5173ZM23.8489 13.333C27.2089 13.333 29.9409 16.0663 29.9409 19.425C29.9409 22.7837 27.2089 25.517 23.8489 25.517H23.8129C22.1862 25.5117 20.6622 24.8743 19.5209 23.7223C18.3769 22.5717 17.7516 21.0437 17.7582 19.421C17.7582 16.0663 20.4902 13.333 23.8489 13.333ZM23.8489 15.333C21.5929 15.333 19.7582 17.169 19.7582 19.425C19.7542 20.5183 20.1729 21.541 20.9396 22.313C21.7062 23.085 22.7276 23.513 23.8156 23.517L23.8489 24.517V23.517C26.1049 23.517 27.9409 21.6823 27.9409 19.425C27.9409 17.169 26.1049 15.333 23.8489 15.333ZM32.1009 14.639C34.4449 15.0243 36.1476 17.0297 36.1476 19.407C36.1422 21.8003 34.3542 23.8537 31.9876 24.1857C31.9409 24.1923 31.8942 24.195 31.8489 24.195C31.3582 24.195 30.9302 23.8337 30.8596 23.3337C30.7836 22.7857 31.1636 22.2803 31.7116 22.2043C33.0982 22.0097 34.1449 20.807 34.1476 19.4043C34.1476 18.0137 33.1502 16.8377 31.7756 16.6123C31.2316 16.523 30.8622 16.0083 30.9516 15.463C31.0422 14.9177 31.5529 14.5523 32.1009 14.639ZM16.7462 15.463C16.8356 16.0083 16.4662 16.523 15.9222 16.6123C14.5476 16.8377 13.5502 18.0137 13.5502 19.407C13.5529 20.807 14.5996 22.011 15.9849 22.2043C16.5329 22.2803 16.9129 22.7857 16.8369 23.3337C16.7662 23.8337 16.3382 24.195 15.8476 24.195C15.8022 24.195 15.7556 24.1923 15.7089 24.1857C13.3422 23.8537 11.5556 21.8003 11.5502 19.4097C11.5502 17.0297 13.2529 15.0243 15.5969 14.639C16.1582 14.551 16.6556 14.9203 16.7462 15.463Z" fill="#F9F9FF"/>
</svg>
