<svg width="24" height="24" viewBox="0 0 24 24" fill="none" xmlns="http://www.w3.org/2000/svg">
<circle cx="12" cy="12" r="12" fill="#0033AD" fill-opacity="0.1"/>
<g clip-path="url(#clip0_620_1300)">
<path d="M11.7792 3.30031C12.1715 3.09121 12.6504 3.57628 12.4419 3.9769C12.3209 4.30347 11.8619 4.39031 11.6274 4.14138C11.379 3.90248 11.46 3.43029 11.7792 3.30031ZM7.55951 3.76523C7.79783 3.66496 8.09951 3.88813 8.07521 4.15362C8.1005 4.44183 7.75571 4.65396 7.5128 4.51698C7.19096 4.38958 7.22777 3.85557 7.55951 3.76523ZM16.2018 4.52508C15.8294 4.47908 15.7705 3.88059 16.129 3.76008C16.4071 3.62145 16.6623 3.88142 16.703 4.15086C16.6446 4.38093 16.4562 4.59159 16.2018 4.52508ZM8.51963 5.60092C8.91806 5.34334 9.48659 5.72695 9.4253 6.19997C9.4046 6.67758 8.78396 6.95429 8.43377 6.63141C8.09519 6.37778 8.14649 5.79594 8.51963 5.60092ZM14.6019 5.87422C14.7797 5.40599 15.4999 5.39182 15.7023 5.84764C15.9022 6.20236 15.6563 6.64162 15.3 6.76222C14.828 6.85228 14.3797 6.33078 14.6019 5.87422ZM11.271 6.73563C11.2671 6.33317 11.6258 6.03328 12 6.00586C12.2482 6.05674 12.5188 6.16482 12.6252 6.42084C12.8237 6.77399 12.6475 7.26026 12.2889 7.42235C12.1249 7.51627 11.9311 7.48104 11.7525 7.47009C11.4795 7.33312 11.2497 7.0645 11.271 6.73563ZM4.99577 7.32208C5.35973 7.09339 5.85077 7.51075 5.71298 7.91487C5.63711 8.26444 5.17739 8.40665 4.91459 8.18348C4.63406 7.97439 4.67852 7.47165 4.99577 7.32208ZM18.471 7.32134C18.7798 7.07628 19.2894 7.3574 19.2526 7.75591C19.2733 8.11927 18.8327 8.39332 18.5262 8.20621C18.1886 8.05111 18.1541 7.52023 18.471 7.32134ZM13.0357 8.04485C13.5453 7.85774 14.1506 8.08165 14.441 8.54602C14.8241 9.1137 14.6203 9.97823 14.0257 10.304C13.4097 10.6892 12.5101 10.3627 12.2826 9.65948C12.0243 9.02999 12.4006 8.24217 13.0357 8.04485ZM10.0459 8.10676C10.6107 7.83428 11.3707 8.06288 11.6435 8.65338C11.9646 9.22814 11.7163 10.0285 11.1424 10.3252C10.5678 10.6588 9.75704 10.4059 9.47894 9.78882C9.16709 9.19208 9.44402 8.38154 10.0459 8.10676ZM7.05227 9.15289C7.0952 8.78097 7.43846 8.53894 7.78478 8.51392C8.15792 8.55991 8.456 8.85612 8.49659 9.24212C8.47211 9.62425 8.18321 9.99774 7.78703 9.99544C7.35116 10.0338 6.96902 9.59058 7.05227 9.15289ZM15.8946 8.59478C16.3421 8.32855 16.9634 8.71611 16.9435 9.24157C16.9742 9.7983 16.2865 10.1906 15.8409 9.86407C15.3781 9.59215 15.4142 8.82632 15.8946 8.59478ZM8.82923 10.557C9.35258 10.4098 9.95099 10.6619 10.2077 11.1536C10.4888 11.6485 10.3739 12.3361 9.93722 12.6991C9.37715 13.2315 8.34422 13.0177 8.04614 12.2911C7.7036 11.625 8.11967 10.7323 8.82923 10.557ZM14.5 10.5542C15.0088 10.4054 15.6065 10.6059 15.88 11.0796C16.2416 11.6215 16.069 12.4296 15.5306 12.7789C14.9667 13.1845 14.0931 12.9715 13.7828 12.3374C13.4066 11.6814 13.7852 10.7543 14.5 10.5542ZM5.46314 11.1724C5.91521 10.9976 6.41633 11.5075 6.23318 11.9656C6.12131 12.383 5.54585 12.5372 5.24858 12.2295C4.90073 11.9406 5.02952 11.2977 5.46314 11.1724ZM17.7166 11.8372C17.7036 11.4543 17.9776 11.1152 18.3618 11.0941C18.6714 11.1442 18.9724 11.3995 18.9479 11.744C18.9763 12.199 18.4399 12.5083 18.0606 12.2945C17.8829 12.2021 17.7917 12.0158 17.7166 11.8372ZM3.24032 11.3971C3.5123 11.2758 3.84872 11.5167 3.78662 11.8254C3.77204 12.175 3.26714 12.3094 3.08165 12.0173C2.91776 11.8145 3.01586 11.5017 3.24032 11.3971ZM20.3892 11.3901C20.5807 11.2508 20.888 11.3509 20.9638 11.5796C21.0925 11.8294 20.8566 12.1716 20.5815 12.1294C20.1954 12.1653 20.0705 11.5639 20.3892 11.3901ZM10.3065 13.0681C11.0222 12.8779 11.7915 13.4879 11.796 14.2411C11.8427 15.0022 11.085 15.6772 10.3524 15.5014C9.78611 15.4082 9.34178 14.8506 9.36014 14.2658C9.35861 13.7064 9.77162 13.1864 10.3065 13.0681ZM13.1408 13.0666C13.8672 12.859 14.6594 13.48 14.6479 14.2506C14.6862 14.9976 13.9522 15.6499 13.2349 15.5017C12.5599 15.4124 12.0618 14.6544 12.2503 13.9849C12.3454 13.5388 12.7101 13.1759 13.1408 13.0666ZM7.67606 13.5302C8.17871 13.4425 8.64995 14.0157 8.4461 14.5036C8.29742 15.0234 7.55726 15.1644 7.23002 14.7398C6.84617 14.332 7.13273 13.5865 7.67606 13.5302ZM15.988 13.5531C16.4362 13.3612 16.9864 13.7575 16.9519 14.2547C16.9699 14.8021 16.2907 15.1795 15.8524 14.86C15.3559 14.5732 15.4463 13.7291 15.988 13.5531ZM18.3113 15.9349C18.1358 15.6006 18.4545 15.1573 18.8178 15.2193C18.9986 15.2161 19.125 15.3618 19.2408 15.4839C19.2645 15.6821 19.3044 15.9185 19.1435 16.0712C18.925 16.3539 18.43 16.2732 18.3113 15.9349ZM4.99424 15.3124C5.33372 15.0814 5.82224 15.4259 5.74592 15.8316C5.70533 16.1903 5.26316 16.3954 4.97192 16.1918C4.65935 16.007 4.67087 15.4808 4.99424 15.3124ZM11.701 16.0634C12.1455 15.8629 12.7116 16.2584 12.6695 16.7587C12.7025 17.3116 12.0022 17.6945 11.5677 17.3625C11.085 17.0774 11.1654 16.2387 11.701 16.0634ZM8.59469 16.8041C8.97323 16.6005 9.48119 16.9521 9.44672 17.3851C9.45824 17.7406 9.11876 18.0437 8.7755 17.9911C8.49119 17.9849 8.30579 17.7244 8.21462 17.4766C8.2193 17.2066 8.32802 16.9059 8.59469 16.8041ZM14.8869 16.8103C15.2762 16.5644 15.8294 16.9176 15.7926 17.3807C15.8026 17.8647 15.1774 18.1747 14.8149 17.8567C14.464 17.6075 14.5069 17.0085 14.8869 16.8103ZM15.9812 19.5753C15.808 19.3075 16.0119 18.9849 16.293 18.9238C16.5191 18.9708 16.7581 19.1446 16.7106 19.4125C16.6777 19.775 16.1589 19.8863 15.9812 19.5753ZM7.29518 19.3428C7.36412 19.1305 7.53116 18.9196 7.7756 18.9748C8.13191 19.0007 8.23766 19.5496 7.92581 19.7187C7.64537 19.912 7.32002 19.6474 7.29518 19.3428ZM11.4857 19.5863C11.5539 19.2723 11.9515 19.1196 12.2136 19.2864C12.3867 19.3624 12.4373 19.5604 12.4818 19.7288C12.458 19.8164 12.4368 19.9042 12.4159 19.9919C12.3086 20.1218 12.1707 20.2518 11.9922 20.2471C11.6604 20.2869 11.361 19.9035 11.4857 19.5863Z" fill="#0033AD"/>
</g>
<defs>
<clipPath id="clip0_620_1300">
<rect width="18" height="17" fill="white" transform="translate(3 3.25)"/>
</clipPath>
</defs>
</svg>
