<svg width="16" height="17" viewBox="0 0 16 17" fill="none" xmlns="http://www.w3.org/2000/svg">
<path fill-rule="evenodd" clip-rule="evenodd" d="M13.8336 14.1264C14.1096 14.1264 14.3336 14.3504 14.3336 14.6264C14.3336 14.9024 14.1096 15.1264 13.8336 15.1264H8.9983C8.7223 15.1264 8.4983 14.9024 8.4983 14.6264C8.4983 14.3504 8.7223 14.1264 8.9983 14.1264H13.8336ZM10.7442 2.93576C10.7775 2.96176 11.8928 3.82843 11.8928 3.82843C12.2982 4.06976 12.6148 4.50109 12.7348 5.01176C12.8542 5.51709 12.7675 6.03843 12.4895 6.47909C12.4876 6.48203 12.4858 6.48494 12.4794 6.49358L12.4743 6.50025C12.4292 6.55972 12.2331 6.80776 11.243 8.04815C11.2338 8.06441 11.2234 8.07963 11.212 8.09443C11.1953 8.11623 11.1772 8.13628 11.1578 8.15453C11.0902 8.23956 11.0189 8.3289 10.9439 8.42282L10.792 8.61313C10.4784 9.00578 10.1066 9.47139 9.66535 10.0236L9.43893 10.3071C8.58714 11.3732 7.49627 12.7382 6.09883 14.4864C5.79283 14.8678 5.33416 15.0898 4.8415 15.0958L2.4155 15.1264H2.40883C2.1775 15.1264 1.97616 14.9678 1.92216 14.7418L1.37616 12.4278C1.2635 11.9484 1.3755 11.4538 1.68283 11.0698L7.96283 3.2151C7.9655 3.21243 7.9675 3.2091 7.97016 3.20643C8.65883 2.3831 9.90416 2.26176 10.7442 2.93576ZM7.26265 5.69133L2.4635 11.6944C2.3495 11.8371 2.3075 12.0211 2.3495 12.1978L2.8035 14.1211L4.8295 14.0958C5.02216 14.0938 5.20016 14.0078 5.31816 13.8611C5.92582 13.1008 6.68953 12.1452 7.47473 11.1627L7.75253 10.815L8.03081 10.4668C8.76719 9.54526 9.49469 8.63471 10.1034 7.87257L7.26265 5.69133ZM8.74016 3.84443L7.88731 4.91L10.7278 7.09062C11.2746 6.4058 11.6342 5.95476 11.6675 5.91176C11.7768 5.73443 11.8195 5.48376 11.7622 5.24243C11.7035 4.99509 11.5495 4.78509 11.3275 4.65109C11.2802 4.61843 10.1568 3.74643 10.1222 3.71909C9.6995 3.38043 9.08283 3.43909 8.74016 3.84443Z" fill="#352F98"/>
</svg>
