<svg width="20" height="21" viewBox="0 0 20 21" fill="none" xmlns="http://www.w3.org/2000/svg">
<path fill-rule="evenodd" clip-rule="evenodd" d="M0 11.692C0 9.246 1.99 7.256 4.436 7.256H5.368C5.782 7.256 6.118 7.592 6.118 8.006C6.118 8.42 5.782 8.756 5.368 8.756H4.436C2.816 8.756 1.5 10.073 1.5 11.692L1.5 16.567C1.5 18.184 2.816 19.5 4.436 19.5H15.565C17.184 19.5 18.5 18.184 18.5 16.567V11.681C18.5 10.069 17.188 8.756 15.576 8.756H14.633C14.219 8.756 13.883 8.42 13.883 8.006C13.883 7.592 14.219 7.256 14.633 7.256H15.576C18.016 7.256 20 9.242 20 11.681V16.567C20 19.011 18.011 21 15.565 21H4.436C1.99 21 0 19.011 0 16.567L0 11.692ZM6.554 3.6119L9.469 0.683899C9.49492 0.657778 9.52187 0.634388 9.55039 0.612982L9.469 0.683899C9.50393 0.64847 9.5421 0.616962 9.5828 0.589624C9.60125 0.577591 9.62032 0.565985 9.63992 0.555229C9.65523 0.546501 9.67122 0.538467 9.68746 0.531021C9.70182 0.524708 9.71618 0.518648 9.73077 0.513031C9.74977 0.505491 9.76931 0.49889 9.78911 0.493099C9.8047 0.488735 9.82026 0.484724 9.836 0.481209C9.8551 0.476742 9.87432 0.473225 9.89368 0.470457C9.90627 0.468891 9.91947 0.46736 9.93276 0.466177C9.95557 0.463888 9.97774 0.4629 10 0.4629L10.062 0.467999L10.1017 0.470051C10.1034 0.470282 10.1051 0.470516 10.1068 0.470758L10 0.4629C10.0555 0.4629 10.1105 0.469046 10.1639 0.480993C10.1797 0.484724 10.1953 0.488735 10.2107 0.493225C10.2307 0.49889 10.2502 0.505491 10.2695 0.512886C10.2838 0.518648 10.2982 0.52471 10.3123 0.531195C10.3288 0.538469 10.3448 0.546501 10.3605 0.555107C10.3797 0.565985 10.3988 0.577591 10.4172 0.589998C10.4282 0.597017 10.439 0.604717 10.4497 0.612717C10.481 0.636526 10.5104 0.662472 10.5377 0.690544L13.447 3.6119C13.593 3.7579 13.666 3.9499 13.666 4.1409C13.666 4.3329 13.593 4.5259 13.445 4.6719C13.151 4.9639 12.677 4.9629 12.385 4.6699L10.75 3.03L10.75 13.2542C10.75 13.6682 10.414 14.0042 10 14.0042C9.586 14.0042 9.25 13.6682 9.25 13.2542L9.25 3.028L7.616 4.6699C7.324 4.9629 6.85 4.9649 6.556 4.6719C6.262 4.3799 6.262 3.9059 6.554 3.6119Z" fill="#F9F9FF"/>
</svg>
