<svg width="69" height="69" viewBox="0 0 69 69" fill="none" xmlns="http://www.w3.org/2000/svg">
<path d="M22.3757 57.5C21.284 57.5 20.3819 56.6888 20.2391 55.6363L20.2194 55.3438L20.2211 17.4398L6.5835 31.1333C5.74325 31.9772 4.37799 31.9802 3.53411 31.1399C2.76695 30.376 2.69477 29.1783 3.31929 28.3328L3.52755 28.0905L20.8465 10.6968C20.9573 10.5855 21.0772 10.4889 21.2038 10.4069C21.2419 10.3838 21.2808 10.3602 21.3206 10.3378C21.3547 10.3173 21.3901 10.2987 21.4259 10.2812C21.4779 10.2568 21.5317 10.233 21.5866 10.2114C21.6289 10.1939 21.6701 10.1792 21.7116 10.1659C21.763 10.15 21.8178 10.1346 21.8735 10.1213C21.9124 10.1114 21.9498 10.1036 21.9873 10.0968C22.0432 10.0872 22.101 10.079 22.1595 10.0732C22.2041 10.0682 22.2483 10.0651 22.2925 10.0635C22.3194 10.063 22.3475 10.0625 22.3757 10.0625L22.4592 10.0636C22.5015 10.0652 22.5438 10.0681 22.586 10.0723L22.3757 10.0625C22.5117 10.0625 22.6449 10.0751 22.7739 10.0992C22.8048 10.1048 22.8364 10.1115 22.8679 10.1188C22.9328 10.1342 22.9954 10.1519 23.0566 10.1722C23.0871 10.1822 23.1196 10.1939 23.1519 10.2063C23.2168 10.2315 23.2786 10.2589 23.3389 10.2891C23.3672 10.3031 23.3969 10.3187 23.4262 10.3352C23.4741 10.3621 23.5196 10.3899 23.564 10.4192C23.5954 10.4399 23.6281 10.4629 23.6602 10.4868L23.6851 10.5055C23.761 10.5636 23.8329 10.6266 23.9004 10.694L23.9024 10.6966L41.2242 28.0904C42.0646 28.9342 42.0617 30.2995 41.2179 31.1398C40.4508 31.9037 39.2528 31.9708 38.4099 31.3427L38.1685 31.1335L24.5336 17.4455L24.5319 55.3438C24.5319 56.5346 23.5665 57.5 22.3757 57.5Z" fill="#352F98"/>
<path fill-rule="evenodd" clip-rule="evenodd" d="M38.4388 16.475C37.35 16.9057 36.9543 18.1992 37.499 19.2357C38.0438 20.2723 39.3226 20.6558 40.4235 20.257C43.0538 19.3044 45.906 19.0748 48.6779 19.6124C52.1471 20.2854 55.2836 22.1202 57.5704 24.8145C59.8572 27.5088 61.1578 30.9018 61.2578 34.4344C61.3579 37.9669 60.2514 41.4281 58.1209 44.2475C55.9903 47.067 52.9627 49.0764 49.5371 49.9446C46.1115 50.8129 42.4923 50.4881 39.276 49.0239C36.0596 47.5597 33.4381 45.0433 31.8435 41.8896C30.5695 39.3698 30.0117 36.5633 30.2099 33.7729C30.2929 32.6049 29.5748 31.4794 28.4289 31.2384C27.2831 30.9974 26.1467 31.7312 26.0296 32.8962C25.6538 36.6363 26.3501 40.4224 28.0594 43.803C30.089 47.8169 33.4255 51.0195 37.519 52.8831C41.6126 54.7467 46.2189 55.1601 50.5789 54.055C54.9388 52.9499 58.7922 50.3924 61.5039 46.804C64.2156 43.2155 65.6238 38.8103 65.4965 34.3143C65.3691 29.8183 63.7138 25.4998 60.8033 22.0706C57.8928 18.6414 53.9009 16.3062 49.4853 15.4497C45.7665 14.7283 41.9342 15.0922 38.4388 16.475ZM44.5455 29.5714C44.5455 28.8599 45.1224 28.2821 45.8351 28.2821C46.5478 28.2821 47.1247 28.8599 47.1247 29.5714C47.1247 30.283 46.5478 30.8607 45.8351 30.8607C45.1224 30.8607 44.5455 30.283 44.5455 29.5714ZM48.5455 29.5714C48.5455 31.0685 47.332 32.2821 45.8351 32.2821C44.3382 32.2821 43.1247 31.0685 43.1247 29.5714C43.1247 28.0743 44.3382 26.8607 45.8351 26.8607C47.332 26.8607 48.5455 28.0743 48.5455 29.5714ZM51.2558 39.6178C50.5431 39.6178 49.9662 40.1956 49.9662 40.9071C49.9662 41.6187 50.5431 42.1964 51.2558 42.1964C51.9686 42.1964 52.5455 41.6187 52.5455 40.9071C52.5455 40.1956 51.9686 39.6178 51.2558 39.6178ZM51.2558 43.6178C52.7527 43.6178 53.9662 42.4042 53.9662 40.9071C53.9662 39.41 52.7527 38.1964 51.2558 38.1964C49.7589 38.1964 48.5455 39.41 48.5455 40.9071C48.5455 42.4042 49.7589 43.6178 51.2558 43.6178ZM41.6777 40.5406C41.3305 40.8666 41.3133 41.4124 41.6393 41.7597C41.9653 42.107 42.5111 42.1242 42.8583 41.7981L55.6121 29.8222C55.9593 29.4961 55.9765 28.9503 55.6505 28.603C55.3245 28.2558 54.7787 28.2386 54.4315 28.5646L41.6777 40.5406Z" fill="black"/>
</svg>
