<svg width="58" height="58" viewBox="0 0 58 58" fill="none" xmlns="http://www.w3.org/2000/svg">
<circle cx="29" cy="29" r="27" stroke="black" stroke-width="4"/>
<path d="M25.6473 33.8373V33.5094C25.6558 31.9878 25.7987 30.7772 26.0761 29.8777C26.3619 28.9782 26.7654 28.2552 27.2867 27.7087C27.8079 27.1539 28.4426 26.6453 29.1908 26.1829C29.7036 25.8635 30.1618 25.5146 30.5653 25.1363C30.9772 24.7496 31.3009 24.3208 31.5363 23.85C31.7717 23.3709 31.8894 22.837 31.8894 22.2485C31.8894 21.5844 31.7338 21.0085 31.4228 20.521C31.1117 20.0334 30.6914 19.6551 30.1618 19.386C29.6406 19.117 29.0563 18.9825 28.409 18.9825C27.8121 18.9825 27.2446 19.1128 26.7066 19.3734C26.177 19.6256 25.7356 20.0123 25.3825 20.5336C25.0379 21.0464 24.8445 21.6979 24.8025 22.4881H20.3132C20.3553 20.8909 20.742 19.5542 21.4734 18.4781C22.2132 17.402 23.1884 16.595 24.3989 16.057C25.6179 15.5189 26.963 15.2499 28.4342 15.2499C30.0399 15.2499 31.4522 15.5315 32.6712 16.0948C33.8986 16.658 34.8528 17.4609 35.5337 18.5033C36.2231 19.5374 36.5677 20.7648 36.5677 22.1855C36.5677 23.1439 36.4122 24.0014 36.1012 24.758C35.7985 25.5146 35.3656 26.1871 34.8023 26.7756C34.2391 27.3641 33.5707 27.8895 32.7973 28.3519C32.1164 28.7722 31.5573 29.2094 31.1202 29.6633C30.6914 30.1173 30.372 30.6511 30.1618 31.2648C29.96 31.8701 29.8549 32.6183 29.8465 33.5094V33.8373H25.6473ZM27.8415 41.706C27.0849 41.706 26.4334 41.437 25.8869 40.899C25.3405 40.3609 25.0673 39.7052 25.0673 38.9318C25.0673 38.1752 25.3405 37.5279 25.8869 36.9898C26.4334 36.4518 27.0849 36.1828 27.8415 36.1828C28.5897 36.1828 29.237 36.4518 29.7835 36.9898C30.3383 37.5279 30.6157 38.1752 30.6157 38.9318C30.6157 39.4446 30.4854 39.9112 30.2248 40.3315C29.9726 40.7519 29.6364 41.0881 29.216 41.3403C28.8041 41.5841 28.3459 41.706 27.8415 41.706Z" fill="#352F98"/>
</svg>
